<?xml version="1.0" encoding="utf-8"?>
<svg width="59px" height="50px" viewBox="0 0 59 50" version="1.1" xmlns:xlink="http://www.w3.org/1999/xlink" xmlns="http://www.w3.org/2000/svg">
  <desc>Created with Lunacy</desc>
  <defs>
    <path d="M0 0L50 0L50 50L0 50L0 0Z" id="path_1" />
    <path d="M0 0L25 0L25 25L0 25L0 0Z" id="path_2" />
    <path d="M0 0L25 0L25 25L0 25L0 0L0 0Z" id="path_3" />
    <clipPath id="mask_1">
      <use xlink:href="#path_1" />
    </clipPath>
    <clipPath id="mask_2">
      <use xlink:href="#path_2" />
    </clipPath>
    <clipPath id="mask_3">
      <use xlink:href="#path_3" />
    </clipPath>
  </defs>
  <g id="Group">
    <g id="ps">
      <path d="M0 0L50 0L50 50L0 50L0 0Z" id="Background" fill="none" stroke="none" />
      <g clip-path="url(#mask_1)">
        <path d="M29.1762 0.00755787C27.3718 0.00822667 25.5674 0.00731292 23.7629 0.00639911C20.1716 0.00458043 16.5797 0.00276151 12.9867 0.0134172C11.1387 0.0186696 9.69523 0.262212 8.59025 1.14037C7.48526 2.01853 6.92265 3.37024 6.50431 5.17553C4.41402 14.1898 2.33993 23.2094 0.277746 32.2302C-0.128298 34.0027 -0.172021 35.4882 0.715246 36.5837C1.60251 37.6792 3.06986 37.968 4.94572 37.9744C15.7401 38.0104 26.5347 38.0064 37.3285 37.9744C38.9971 37.9695 40.4018 37.6388 41.4809 36.7966C42.5599 35.9544 43.2064 34.6746 43.5688 33.0876C45.6672 23.8837 47.7384 14.6722 49.7641 5.45092C50.1342 3.76465 50.1624 2.3554 49.3129 1.31615C48.4634 0.276903 47.0838 0.0184112 45.3695 0.0114641C41.4267 -0.00460841 37.4862 -0.000363888 33.5474 0.00387866C32.0901 0.00544841 30.633 0.00701789 29.1762 0.00755787ZM33.5507 2.00388C32.0935 2.00545 30.636 2.00702 29.1781 2.00756C27.3725 2.00823 25.5673 2.00731 23.7624 2.0064L23.7621 2.0064C20.1706 2.00459 16.5808 2.00278 12.9926 2.01342C11.3226 2.01816 10.4064 2.25218 9.83439 2.70678C9.26237 3.16137 8.82923 3.99698 8.45157 5.6267C6.36186 14.6385 4.29074 23.6563 2.22892 32.6755C1.87396 34.225 2.00145 34.9944 2.26993 35.3259C2.53842 35.6574 3.29938 35.9687 4.95157 35.9744C15.7412 36.0103 26.5325 36.0064 37.3227 35.9744C38.7341 35.9702 39.6315 35.7016 40.2504 35.2185C40.869 34.7357 41.316 33.964 41.6176 32.6443C43.715 23.4448 45.7868 14.2373 47.811 5.02318C48.1318 3.56145 47.9958 2.86528 47.7641 2.58178C47.5323 2.29827 46.8555 2.01751 45.3617 2.01146C41.4258 1.99542 37.4891 1.99965 33.5507 2.00388ZM19.2738 5.0056C18.6393 4.95823 17.9898 5.22248 17.3363 5.80248C16.0133 6.97648 16.3652 8.13106 17.4672 9.32006C19.8742 11.9191 22.0997 14.4612 24.5297 17.1892C24.9467 17.6542 25.4529 18.2346 26.0609 18.9216C25.5989 19.2666 24.8687 19.8291 24.3207 20.2361C20.3897 23.1631 16.4417 26.0696 12.4867 28.9626C11.3807 29.7716 10.3953 30.6309 11.4613 32.0759C12.4283 33.3859 13.57 33.1641 14.766 32.2771C20.089 28.3321 25.4168 24.3928 30.7758 20.4978C32.1718 19.4828 32.4676 18.5523 31.1996 17.1833C27.8046 13.5173 24.4674 9.79682 21.1274 6.07982C20.5279 5.41232 19.9083 5.05298 19.2738 5.0056ZM21.0043 29.9997C21.0043 28.9997 21.6293 27.9997 22.7543 27.9997L32.2543 27.9997C33.3793 27.9997 34.0043 28.9997 34.0043 29.9997C34.0043 30.9997 33.3793 31.9997 32.2543 31.9997L22.7543 31.9997C21.6293 31.9997 21.0043 30.9997 21.0043 29.9997Z" transform="translate(-0.004302979 6.000244)" id="Shape" fill="#FFFFFF" fill-rule="evenodd" stroke="none" />
      </g>
    </g>
    <g id="shield" transform="translate(34 20)">
      <path d="M0 0L25 0L25 25L0 25L0 0Z" id="Background" fill="none" stroke="none" />
      <g clip-path="url(#mask_2)">
        <g id="Group">
          <path d="M8.75 0L11.25 0.75L15.25 3.25L18 4.25L17.5 11.5L9 22L5.75 20.75L1.25 13.75L0 9L8.75 0L8.75 0Z" transform="translate(3.5 1.5)" id="Rectangle" fill="#000000" stroke="none" />
          <g id="shield">
            <path d="M0 0L25 0L25 25L0 25L0 0L0 0Z" id="Background" fill="none" stroke="none" />
            <g id="Mask-group">
              <path d="M0 0L25 0L25 25L0 25L0 0L0 0Z" id="path_1" fill="none" stroke="none" />
              <g clip-path="url(#mask_3)">
                <g id="Group" transform="translate(3 0.9999999)">
                  <path d="M18.5 4C16.6555 4 14.7505 2.7605 13.07 1.6665C11.696 0.7725 10.5095 0 9.5 0C8.4905 0 7.304 0.7725 5.93 1.6665C4.2495 2.7605 2.3445 4 0.5 4C0.2235 4 0 4.2235 0 4.5L0 8C0 9.292 0.18 10.6005 0.494 11.8785C0.5035 11.9195 0.508 11.9575 0.5185 12L0.5225 12C1.998 17.835 6.298 23 9.5 23C13.4245 23 19 15.242 19 8L19 4.5C19 4.2235 18.7765 4 18.5 4ZM18.0015 8C18.0015 9.3555 17.8035 10.704 17.463 12L9.5015 12L9.5015 1C10.214 1 11.337 1.731 12.526 2.505C14.1825 3.583 16.043 4.794 18.0015 4.9765L18.0015 8ZM9.5015 12L9.5015 22C6.9775 22 2.97849 17.476 1.53999 12L9.5015 12Z" id="Shape" fill="#FFFFFF" fill-rule="evenodd" stroke="none" />
                </g>
              </g>
            </g>
          </g>
        </g>
      </g>
    </g>
  </g>
</svg>