<?xml version="1.0" encoding="utf-8"?>
<svg width="38px" height="46px" viewBox="0 0 38 46" version="1.1" xmlns:xlink="http://www.w3.org/1999/xlink" xmlns="http://www.w3.org/2000/svg">
  <path d="M37 8C33.311 8 29.501 5.521 26.14 3.333C23.392 1.545 21.019 0 19 0C16.981 0 14.608 1.545 11.86 3.333C8.499 5.521 4.689 8 1 8C0.447 8 0 8.447 0 9L0 16C0 18.584 0.36 21.201 0.988 23.757C1.007 23.839 1.016 23.915 1.037 24L1.045 24C3.996 35.67 12.596 46 19 46C26.849 46 38 30.484 38 16L38 9C38 8.447 37.553 8 37 8ZM36.003 16C36.003 18.711 35.607 21.408 34.926 24L19.003 24L19.003 2C20.428 2 22.674 3.462 25.052 5.01C28.365 7.166 32.086 9.588 36.003 9.953L36.003 16ZM19.003 24L19.003 44C13.955 44 5.95702 34.952 3.08002 24L19.003 24Z" id="Shape" fill="#FFFFFF" fill-rule="evenodd" stroke="none" />
</svg>