<?xml version="1.0" encoding="utf-8"?>
<svg width="81px" height="56px" viewBox="0 0 81 56" version="1.1" xmlns:xlink="http://www.w3.org/1999/xlink" xmlns="http://www.w3.org/2000/svg">
  <desc>Created with Lunacy</desc>
  <defs>
    <path d="M0 0L48 0L48 48L0 48L0 0Z" id="path_1" />
    <path d="M0 0L30 0L30 30L0 30L0 0Z" id="path_2" />
    <clipPath id="mask_1">
      <use xlink:href="#path_1" />
    </clipPath>
    <clipPath id="mask_2">
      <use xlink:href="#path_2" />
    </clipPath>
  </defs>
  <g id="Group" transform="translate(0.5 0.5)">
    <g id="icons8-powershell" transform="translate(0 7)">
      <path d="M0 0L48 0L48 48L0 48L0 0Z" id="Background" fill="none" stroke="none" />
      <g clip-path="url(#mask_1)">
        <path d="M19.8651 35.9564C14.2361 35.9544 8.6061 35.9804 2.9771 35.9434C0.122098 35.9244 -0.396902 35.2434 0.246098 32.4184C2.4241 22.8384 4.6731 13.2754 6.8031 3.6844C7.3741 1.1124 8.6061 -0.0245972 11.3301 0.000402927C22.5881 0.106403 33.8471 0.0344028 45.1061 0.0464029C47.9301 0.0494027 48.4041 0.660403 47.7701 3.5574C45.7121 12.9634 43.6411 22.3664 41.5341 31.7604C40.7451 35.2764 39.8371 35.9474 36.1811 35.9554C30.7421 35.9664 25.3031 35.9584 19.8651 35.9564L19.8651 35.9564Z" transform="translate(-0.01809692 5.999603)" id="Shape" fill="#0277BD" stroke="none" />
        <path d="M13.5266 12.1895C13.9436 12.6545 14.4496 13.2345 15.0576 13.9215C14.5956 14.2665 13.8656 14.8295 13.3176 15.2365C9.38656 18.1635 5.43856 21.0685 1.48356 23.9615C0.377563 24.7705 -0.608438 25.6305 0.457562 27.0755C1.42456 28.3855 2.56556 28.1635 3.76156 27.2765C9.08456 23.3315 14.4126 19.3935 19.7716 15.4985C21.1676 14.4835 21.4636 13.5525 20.1956 12.1835C16.8006 8.51752 13.4646 4.79652 10.1246 1.07952C8.92556 -0.255479 7.64056 -0.357479 6.33356 0.802521C5.01056 1.97652 5.36156 3.13152 6.46356 4.32052C8.87056 6.91952 11.0966 9.46152 13.5266 12.1895ZM10.0006 24.9995C10.0006 25.9995 10.6256 26.9995 11.7506 26.9995L21.2506 26.9995C22.3756 26.9995 23.0006 25.9995 23.0006 24.9995C23.0006 23.9995 22.3756 22.9995 21.2506 22.9995L11.7506 22.9995C10.6256 22.9995 10.0006 23.9995 10.0006 24.9995Z" transform="translate(9.999435 10.00049)" id="Shape" fill="#FAFAFA" fill-rule="evenodd" stroke="none" />
      </g>
    </g>
    <path d="M19.8651 35.9564C14.2361 35.9544 8.6061 35.9804 2.9771 35.9434C0.122098 35.9244 -0.396902 35.2434 0.246098 32.4184C2.4241 22.8384 4.6731 13.2754 6.8031 3.6844C7.3741 1.1124 8.6061 -0.0245972 11.3301 0.000402927C22.5881 0.106403 33.8471 0.0344028 45.1061 0.0464029C47.9301 0.0494027 48.4041 0.660403 47.7701 3.5574C45.7121 12.9634 43.6411 22.3664 41.5341 31.7604C40.7451 35.2764 39.8371 35.9474 36.1811 35.9554C30.7421 35.9664 25.3031 35.9584 19.8651 35.9564L19.8651 35.9564Z" transform="translate(31 0)" id="Shape" fill="#0277BD" stroke="none" />
    <g id="icons8-external-link" transform="translate(42.01849 2.963409)">
      <path d="M0 0L30 0L30 30L0 30L0 0Z" id="Background" fill="none" stroke="none" />
      <g clip-path="url(#mask_2)">
        <path d="M21.8692 0.0101829C21.906 0.00485516 21.9432 0.00159502 21.9805 0.000417233C22.2745 -0.00807333 22.5574 0.113339 22.7539 0.332342C22.9503 0.551346 23.0403 0.845724 23 1.13714L23 7.01018C23.0051 7.37082 22.8156 7.70626 22.5041 7.88807C22.1926 8.06988 21.8074 8.06988 21.4959 7.88807C21.1844 7.70626 20.9949 7.37082 21 7.01018L21 3.42425L10.707 13.7172C10.4562 13.9784 10.0838 14.0837 9.73334 13.9923C9.3829 13.901 9.10923 13.6273 9.01787 13.2769C8.92652 12.9264 9.03174 12.554 9.29298 12.3032L19.5859 2.01018L16 2.01018C15.6394 2.01528 15.3039 1.82581 15.1221 1.51431C14.9403 1.20281 14.9403 0.817555 15.1221 0.506057C15.3039 0.194559 15.6394 0.00508261 16 0.0101829L21.8692 0.0101829ZM0 6.01019C0 4.91713 0.906937 4.01019 2 4.01019L14.5781 4.01019L12.5781 6.01019L2 6.01019L2 21.0102L17 21.0102L17 10.4321L19 8.43207L19 21.0102C19 22.1033 18.0931 23.0102 17 23.0102L2 23.0102C0.906937 23.0102 0 22.1033 0 21.0102L0 6.01019Z" transform="translate(4 3)" id="Shape" fill="#FFFFFF" fill-rule="evenodd" stroke="#FBFBFB" stroke-width="1" />
      </g>
    </g>
  </g>
</svg>