<svg fill="#000000" xmlns="http://www.w3.org/2000/svg" viewBox="0 0 50 50" width="50px" height="50px"><path d="M 29.171875 6.0078125 C 23.776481 6.0098125 18.380759 5.9976619 12.982422 6.0136719 C 11.134395 6.0189243 9.6909246 6.2624667 8.5859375 7.140625 C 7.4809504 8.0187833 6.9183429 9.3704951 6.5 11.175781 C 4.4097121 20.190023 2.3356168 29.209684 0.2734375 38.230469 C -0.13260693 40.002978 -0.17633024 41.488478 0.7109375 42.583984 C 1.5982052 43.67949 3.065556 43.968229 4.9414062 43.974609 C 15.735816 44.010619 26.530427 44.006619 37.324219 43.974609 C 38.992739 43.969709 40.39749 43.639067 41.476562 42.796875 C 42.555636 41.954683 43.202094 40.67485 43.564453 39.087891 C 45.662891 29.883971 47.734055 20.672405 49.759766 11.451172 C 50.129908 9.7649068 50.158103 8.355655 49.308594 7.3164062 C 48.459085 6.2771576 47.079512 6.0186656 45.365234 6.0117188 C 39.963541 5.9896996 34.566145 6.0058131 29.171875 6.0078125 z M 29.173828 8.0078125 C 34.571558 8.0058125 39.965115 7.9897337 45.357422 8.0117188 C 46.851144 8.0177688 47.528024 8.2985301 47.759766 8.5820312 C 47.991507 8.8655325 48.127503 9.5617019 47.806641 11.023438 C 45.782481 20.237583 43.710702 29.445071 41.613281 38.644531 C 41.311646 39.964261 40.864685 40.735954 40.246094 41.21875 C 39.627168 41.701808 38.729839 41.970485 37.318359 41.974609 C 26.528151 42.006609 15.736856 42.010599 4.9472656 41.974609 C 3.2950739 41.968987 2.5341073 41.657666 2.265625 41.326172 C 1.9971427 40.994678 1.8696538 40.225272 2.2246094 38.675781 C 4.28643 29.656566 6.3575536 20.638711 8.4472656 11.626953 C 8.8249227 9.9972396 9.2580652 9.1616229 9.8300781 8.7070312 C 10.402091 8.2524397 11.318308 8.0184188 12.988281 8.0136719 C 18.379945 7.9976819 23.775222 8.0098125 29.173828 8.0078125 z M 19.269531 11.005859 C 18.635031 10.958484 17.985531 11.222734 17.332031 11.802734 C 16.009031 12.976734 16.360891 14.131312 17.462891 15.320312 C 19.869891 17.919313 22.095391 20.461453 24.525391 23.189453 C 24.942391 23.654453 25.448641 24.234875 26.056641 24.921875 C 25.594641 25.266875 24.864406 25.829328 24.316406 26.236328 C 20.385406 29.163328 16.437422 32.069891 12.482422 34.962891 C 11.376422 35.771891 10.391031 36.631172 11.457031 38.076172 C 12.424031 39.386172 13.565719 39.164344 14.761719 38.277344 C 20.084719 34.332344 25.412484 30.393047 30.771484 26.498047 C 32.167484 25.483047 32.463313 24.552594 31.195312 23.183594 C 27.800313 19.517594 24.463047 15.797078 21.123047 12.080078 C 20.523547 11.412578 19.904031 11.053234 19.269531 11.005859 z M 22.75 34 C 21.625 34 21 35 21 36 C 21 37 21.625 38 22.75 38 L 32.25 38 C 33.375 38 34 37 34 36 C 34 35 33.375 34 32.25 34 L 22.75 34 z"/></svg>